<svg width="40" height="40" viewBox="0 0 40 40" fill="none" xmlns="http://www.w3.org/2000/svg">
<g id="passkey">
<mask id="mask0_32_19" style="mask-type:alpha" maskUnits="userSpaceOnUse" x="0" y="0" width="40" height="40">
<rect id="Bounding box" width="40" height="40" fill="#D9D9D9"/>
</mask>
<g mask="url(#mask0_32_19)">
<path id="passkey_2" d="M5 33.3333V29.1667C5 28.1482 5.25694 27.257 5.77083 26.4931C6.28472 25.7292 6.95371 25.1482 7.77779 24.75C9.5926 23.9074 11.3657 23.2755 13.0972 22.8542C14.8287 22.4329 16.5741 22.2222 18.3333 22.2222C19 22.2222 19.6528 22.2523 20.2917 22.3125C20.9306 22.3727 21.5833 22.463 22.25 22.5833C22.1204 24.1944 22.4167 25.7153 23.1389 27.1458C23.8611 28.5764 24.9167 29.713 26.3056 30.5556V33.3333H5ZM31.6667 39.0833L29.1667 36.5833V28.8334C27.9444 28.4723 26.9444 27.7848 26.1667 26.7709C25.3889 25.757 25 24.5834 25 23.25C25 21.6389 25.5694 20.2639 26.7083 19.125C27.8472 17.9861 29.2222 17.4167 30.8333 17.4167C32.4444 17.4167 33.8194 17.9861 34.9583 19.125C36.0972 20.2639 36.6667 21.6389 36.6667 23.25C36.6667 24.5 36.3125 25.6111 35.6042 26.5834C34.8958 27.5556 34 28.25 32.9167 28.6667L35 30.75L32.5 33.25L35 35.75L31.6667 39.0833ZM18.3333 19.4444C16.5556 19.4444 15.0463 18.824 13.8055 17.5833C12.5648 16.3426 11.9445 14.8333 11.9445 13.0555C11.9445 11.2778 12.5648 9.7685 13.8055 8.52778C15.0463 7.28703 16.5556 6.66666 18.3333 6.66666C20.1111 6.66666 21.6204 7.28703 22.8611 8.52778C24.1018 9.7685 24.7222 11.2778 24.7222 13.0555C24.7222 14.8333 24.1018 16.3426 22.8611 17.5833C21.6204 18.824 20.1111 19.4444 18.3333 19.4444ZM30.8333 24.0834C31.3056 24.0834 31.7014 23.9236 32.0208 23.6042C32.3403 23.2848 32.5 22.8889 32.5 22.4167C32.5 21.9445 32.3403 21.5486 32.0208 21.2292C31.7014 20.9098 31.3056 20.75 30.8333 20.75C30.3611 20.75 29.9653 20.9098 29.6458 21.2292C29.3264 21.5486 29.1667 21.9445 29.1667 22.4167C29.1667 22.8889 29.3264 23.2848 29.6458 23.6042C29.9653 23.9236 30.3611 24.0834 30.8333 24.0834Z" fill="white" fill-opacity="0.5"/>
</g>
</g>
</svg>
